<?xml version="1.0" standalone="no"?>
<!DOCTYPE svg PUBLIC "-//W3C//DTD SVG 20010904//EN"
 "http://www.w3.org/TR/2001/REC-SVG-20010904/DTD/svg10.dtd">
<svg version="1.0" xmlns="http://www.w3.org/2000/svg"
 width="256.000000pt" height="256.000000pt" viewBox="0 0 256.000000 256.000000"
 preserveAspectRatio="xMidYMid meet">
<metadata>
Created by potrace 1.14, written by Peter Selinger 2001-2017
</metadata>
<g transform="translate(0.000000,256.000000) scale(0.100000,-0.100000)"
fill="#000000" stroke="none">
<path d="M186 2368 c-9 -13 -17 -35 -19 -48 -2 -13 -9 -26 -16 -28 -9 -3 -9
-7 0 -18 9 -12 9 -13 -3 -9 -18 7 -32 -31 -14 -39 7 -3 6 -5 -3 -5 -16 -1 -40
-30 -41 -49 0 -8 10 -3 23 10 12 13 16 16 8 6 -8 -10 -11 -21 -7 -25 4 -4 11
-1 16 7 5 7 16 15 24 16 9 1 14 -2 10 -7 -3 -5 0 -9 7 -9 7 0 9 -3 6 -6 -4 -4
-13 -1 -22 6 -9 7 -15 8 -15 2 0 -6 5 -12 10 -14 6 -2 12 -13 13 -26 1 -15 6
-21 17 -17 13 4 13 3 -1 -7 -13 -11 -15 -35 -15 -140 1 -97 -2 -128 -11 -128
-7 0 -13 -5 -13 -11 0 -5 5 -7 12 -3 7 5 8 3 3 -6 -6 -10 -11 -9 -22 5 -13 18
-13 18 -28 -1 -13 -16 -14 -16 -9 -1 3 9 2 17 -3 17 -6 0 -9 -17 -8 -37 1 -37
3 -38 38 -38 20 0 37 -4 37 -9 0 -5 8 -2 17 5 15 11 14 10 -1 -9 -14 -17 -16
-22 -5 -22 9 0 10 -3 4 -8 -7 -4 -11 -61 -10 -144 0 -112 -3 -139 -15 -143
-13 -5 -13 -7 0 -16 13 -9 13 -10 0 -6 -8 2 -14 9 -13 15 2 6 -10 9 -25 8 -23
-3 -27 -8 -27 -37 0 -31 2 -33 35 -35 61 -3 65 -4 55 -12 -16 -11 -18 -52 -3
-52 8 0 9 -3 3 -8 -13 -9 -16 -104 -3 -96 5 3 7 13 4 23 -5 12 -2 11 9 -3 8
-11 15 -25 15 -30 0 -6 -4 -5 -9 3 -15 24 -26 -9 -26 -84 l0 -70 -43 1 c-23 0
-42 -4 -42 -9 0 -5 8 -6 18 -3 14 5 14 4 -2 -9 -20 -15 -20 -15 0 -30 16 -13
16 -14 2 -9 -10 3 -18 2 -18 -4 0 -5 18 -8 39 -7 23 1 42 -3 44 -9 2 -6 3 -46
2 -88 -1 -43 3 -75 7 -71 5 3 7 12 3 22 -5 13 -4 13 6 4 10 -10 9 -17 -6 -33
-14 -15 -15 -20 -4 -20 9 0 10 -3 3 -8 -13 -9 -13 -101 -1 -99 5 1 12 -5 14
-13 4 -13 3 -13 -6 0 -9 13 -11 12 -16 -1 -4 -12 -17 -16 -46 -14 -21 1 -39
-2 -39 -7 0 -6 8 -7 18 -4 14 5 14 4 -2 -9 -20 -15 -20 -15 0 -30 16 -13 16
-14 2 -9 -10 3 -18 2 -18 -3 0 -5 19 -9 42 -9 l42 1 -1 -52 c-1 -29 3 -53 8
-53 5 0 8 6 7 13 -2 7 6 11 20 10 13 -2 21 1 17 6 -3 6 3 14 12 20 17 9 17 11
-1 24 -15 11 -16 16 -6 22 9 5 11 4 6 -3 -4 -7 -3 -12 2 -12 5 0 9 107 8 254
0 196 -3 253 -12 245 -13 -11 -31 7 -20 18 3 4 6 0 6 -7 0 -11 2 -12 13 -1 18
18 17 239 -2 246 -11 4 -10 9 3 29 12 18 12 26 3 29 -9 4 -9 6 1 6 6 1 12 10
12 22 0 13 -4 18 -12 13 -10 -6 -10 -4 0 7 15 16 16 59 1 59 -5 0 -7 -5 -3
-12 5 -7 3 -8 -6 -3 -10 6 -9 11 6 22 18 13 18 15 1 24 -14 9 -15 13 -5 32 14
24 20 417 7 417 -4 0 -6 -11 -5 -25 2 -13 -1 -22 -5 -19 -13 7 -5 44 12 55 12
8 11 11 -4 20 -16 10 -17 13 -4 33 10 15 14 44 13 85 -2 57 0 64 21 72 13 5
30 6 38 3 10 -4 15 0 15 11 0 10 -5 13 -12 9 -8 -5 -9 -2 -5 9 9 23 -8 21 -24
-3 -11 -15 -17 -17 -29 -9 -13 9 -13 10 2 5 11 -3 19 2 23 15 4 10 11 19 17
19 6 0 5 7 -3 16 -7 9 -14 21 -15 28 -1 6 -16 37 -33 69 -30 58 -30 58 -45 35z
m33 -44 c6 -15 9 -29 7 -32 -3 -2 -10 7 -15 21 -5 14 -16 27 -23 30 -9 4 -8 6
3 6 9 1 21 -11 28 -25z m-43 -32 c-15 -15 -15 -15 -4 10 7 15 15 23 17 17 2
-6 -4 -18 -13 -27z m39 -12 c3 -5 0 -7 -8 -4 -8 3 -18 1 -21 -4 -3 -6 6 -13
21 -17 21 -5 24 -8 12 -16 -7 -5 -18 -9 -24 -9 -5 0 -4 4 3 9 10 6 8 10 -9 14
-19 5 -20 8 -9 21 14 18 26 20 35 6z m28 -5 c-3 -9 -8 -14 -10 -11 -3 3 -2 9
2 15 9 16 15 13 8 -4z m-78 -36 c-3 -4 2 -10 11 -13 8 -3 13 -10 10 -15 -3 -5
2 -15 11 -22 15 -12 16 -12 10 3 -3 9 0 22 8 28 16 13 35 5 34 -13 0 -9 -2 -9
-6 1 -2 6 -9 12 -14 12 -6 0 -8 -4 -5 -9 3 -4 -1 -17 -9 -27 -13 -19 -14 -19
-28 1 -9 11 -13 23 -11 27 3 5 1 8 -5 8 -5 0 -11 -3 -14 -7 -2 -5 -3 -3 -1 3
1 6 -2 16 -7 21 -6 6 -4 10 5 10 8 0 13 -4 11 -8z m100 -7 c-3 -3 -11 0 -18 7
-9 10 -8 11 6 5 10 -3 15 -9 12 -12z m-35 -72 c-8 -5 -19 -10 -25 -10 -5 0 -3
5 5 10 8 5 20 10 25 10 6 0 3 -5 -5 -10z m-21 -29 c22 -17 22 -49 0 -36 -5 4
-9 -1 -9 -9 0 -19 -16 -21 -26 -4 -4 6 -3 8 3 5 6 -4 14 0 17 9 3 8 10 12 16
9 5 -3 10 -1 10 4 0 6 -4 11 -8 11 -5 0 -17 7 -28 15 -10 8 -14 14 -9 14 6 1
21 -8 34 -18z m6 -78 c-11 -7 -24 -13 -29 -13 -6 1 -1 6 12 13 12 7 19 17 15
22 -4 4 -2 5 6 0 12 -7 11 -10 -4 -22z m-25 -33 c0 -5 -2 -10 -4 -10 -3 0 -8
5 -11 10 -3 6 -1 10 4 10 6 0 11 -4 11 -10z m15 -19 c-3 -6 -11 -11 -16 -11
-5 0 -4 6 3 14 14 16 24 13 13 -3z m-28 -53 c-3 -7 -5 -2 -5 12 0 14 2 19 5
13 2 -7 2 -19 0 -25z m27 2 c-6 -6 -10 -3 -10 10 0 13 4 16 10 10 7 -7 7 -13
0 -20z m-14 -40 c-6 -11 -12 -20 -14 -20 -2 0 -2 9 1 20 3 11 9 20 15 20 5 0
4 -9 -2 -20z m24 -28 c2 -4 -4 -8 -14 -8 -10 0 -16 4 -14 8 3 4 9 8 14 8 5 0
11 -4 14 -8z m-1 -29 c-7 -2 -19 -2 -25 0 -7 3 -2 5 12 5 14 0 19 -2 13 -5z
m-79 -51 c2 -4 -4 -8 -14 -8 -10 0 -16 4 -14 8 3 4 9 8 14 8 5 0 11 -4 14 -8z
m31 -12 c3 -5 1 -10 -4 -10 -6 0 -11 5 -11 10 0 6 2 10 4 10 3 0 8 -4 11 -10z
m-32 -17 c-7 -2 -19 -2 -25 0 -7 3 -2 5 12 5 14 0 19 -2 13 -5z m70 -28 c-3
-9 -8 -14 -10 -11 -3 3 -2 9 2 15 9 16 15 13 8 -4z m15 -20 c-6 -14 -13 -23
-15 -21 -5 5 15 46 22 46 3 0 -1 -11 -7 -25z m-24 -31 c5 -14 4 -15 -9 -4 -17
14 -19 20 -6 20 5 0 12 -7 15 -16z m19 -31 c-7 -2 -19 -2 -25 0 -7 3 -2 5 12
5 14 0 19 -2 13 -5z m-3 -27 c-7 -7 -13 -7 -20 0 -6 6 -3 10 10 10 13 0 16 -4
10 -10z m-20 -26 c6 -11 7 -20 2 -20 -6 0 -12 9 -15 20 -3 11 -3 20 -1 20 2 0
8 -9 14 -20z m35 -6 c-2 -25 -19 -44 -40 -43 -5 0 0 5 13 12 12 7 20 16 16 20
-6 6 1 37 9 37 1 0 2 -12 2 -26z m-35 -64 c0 -5 -2 -10 -4 -10 -3 0 -8 5 -11
10 -3 6 -1 10 4 10 6 0 11 -4 11 -10z m15 -19 c-3 -6 -11 -11 -16 -11 -5 0 -4
6 3 14 14 16 24 13 13 -3z m-28 -53 c-3 -7 -5 -2 -5 12 0 14 2 19 5 13 2 -7 2
-19 0 -25z m27 2 c-6 -6 -10 -3 -10 10 0 13 4 16 10 10 7 -7 7 -13 0 -20z m1
-30 c3 -6 -1 -7 -9 -4 -18 7 -21 14 -7 14 6 0 13 -4 16 -10z m-108 -52 c-3 -7
-5 -2 -5 12 0 14 2 19 5 13 2 -7 2 -19 0 -25z m27 2 c-6 -6 -10 -3 -10 10 0
13 4 16 10 10 7 -7 7 -13 0 -20z m36 -4 c0 -2 -7 -7 -16 -10 -8 -3 -12 -2 -9
4 6 10 25 14 25 6z m48 -51 c-3 -3 -9 2 -12 12 -6 14 -5 15 5 6 7 -7 10 -15 7
-18z m-12 -32 c-3 -4 -6 -1 -6 6 0 7 -4 9 -10 6 -6 -4 -7 1 -3 11 6 15 7 15
15 -1 6 -9 7 -19 4 -22z m17 -40 c-7 -2 -19 -2 -25 0 -7 3 -2 5 12 5 14 0 19
-2 13 -5z m-3 -27 c-7 -7 -13 -7 -20 0 -6 6 -3 10 10 10 13 0 16 -4 10 -10z
m13 -21 c-3 -9 -8 -14 -10 -11 -3 3 -2 9 2 15 9 16 15 13 8 -4z m2 -35 c3 -5
1 -10 -4 -10 -6 0 -11 5 -11 10 0 6 2 10 4 10 3 0 8 -4 11 -10z m-23 -33 c-23
-13 -21 -30 3 -21 22 9 26 -25 4 -37 -11 -6 -23 -8 -26 -6 -2 3 5 8 16 12 12
3 19 10 16 15 -3 5 -12 7 -19 4 -21 -8 -28 24 -8 35 9 6 22 10 27 10 6 0 0 -5
-13 -12z m-12 -87 c0 -5 -2 -10 -4 -10 -3 0 -8 5 -11 10 -3 6 -1 10 4 10 6 0
11 -4 11 -10z m-64 -60 c0 -12 -4 -16 -9 -11 -5 5 -6 14 -3 20 10 15 12 14 12
-9z m21 -12 c-3 -7 -5 -2 -5 12 0 14 2 19 5 13 2 -7 2 -19 0 -25z m35 -50 c-8
-8 -9 -4 -5 13 4 13 8 18 11 10 2 -7 -1 -18 -6 -23z m42 6 c3 -8 2 -12 -4 -9
-6 3 -10 10 -10 16 0 14 7 11 14 -7z m-10 -22 c2 -4 -4 -8 -14 -8 -10 0 -16 4
-14 8 3 4 9 8 14 8 5 0 11 -4 14 -8z m-1 -29 c-7 -2 -19 -2 -25 0 -7 3 -2 5
12 5 14 0 19 -2 13 -5z m0 -30 c-7 -2 -19 -2 -25 0 -7 3 -2 5 12 5 14 0 19 -2
13 -5z m-3 -27 c-7 -7 -13 -7 -20 0 -6 6 -3 10 10 10 13 0 16 -4 10 -10z m4
-36 c-10 -16 -20 -28 -22 -26 -4 5 28 56 35 56 2 0 -4 -13 -13 -30z m4 -35
c-6 -14 -13 -23 -15 -21 -5 5 15 46 22 46 3 0 -1 -11 -7 -25z m-24 -31 c5 -14
4 -15 -9 -4 -17 14 -19 20 -6 20 5 0 12 -7 15 -16z m19 -31 c-7 -2 -19 -2 -25
0 -7 3 -2 5 12 5 14 0 19 -2 13 -5z m-3 -27 c-7 -7 -13 -7 -20 0 -6 6 -3 10
10 10 13 0 16 -4 10 -10z m13 -21 c-3 -9 -8 -14 -10 -11 -3 3 -2 9 2 15 9 16
15 13 8 -4z m-97 -55 c0 -12 -4 -16 -9 -11 -5 5 -6 14 -3 20 10 15 12 14 12
-9z m21 -12 c-3 -7 -5 -2 -5 12 0 14 2 19 5 13 2 -7 2 -19 0 -25z m53 -28 c0
-5 -5 -10 -11 -10 -5 0 -7 5 -4 10 3 6 8 10 11 10 2 0 4 -4 4 -10z m-23 -52
c-3 -7 -5 -2 -5 12 0 14 2 19 5 13 2 -7 2 -19 0 -25z m27 2 c-6 -6 -10 -3 -10
10 0 13 4 16 10 10 7 -7 7 -13 0 -20z"/>
<path d="M226 1995 c-3 -8 -1 -15 4 -15 6 0 10 7 10 15 0 8 -2 15 -4 15 -2 0
-6 -7 -10 -15z"/>
<path d="M1090 1983 c-51 -35 -49 -23 -50 -455 0 -237 4 -417 10 -432 6 -16 6
-27 0 -31 -6 -4 -10 -151 -10 -378 0 -350 1 -374 19 -404 11 -17 30 -33 43
-36 26 -5 -35 -10 -127 -10 -33 0 -63 -5 -67 -11 -5 -8 -8 -7 -8 2 0 18 -31
15 -46 -5 -16 -21 -18 -43 -4 -43 6 0 9 6 8 13 -2 8 10 13 35 14 42 1 54 -9
32 -27 -15 -13 -39 -4 -30 11 4 5 -3 9 -14 9 -12 0 -20 -5 -19 -11 5 -21 -23
-21 -29 0 -3 12 -9 21 -14 21 -5 0 -9 5 -9 11 0 8 4 9 13 0 8 -6 17 -8 20 -4
9 9 9 23 0 22 -31 -5 -33 4 -6 21 22 13 34 29 38 52 3 18 4 159 2 313 -2 154
-4 285 -4 290 0 6 1 180 4 387 4 413 2 427 -53 448 -14 6 -101 10 -194 10
l-168 0 -31 -31 -31 -30 4 -382 c1 -210 3 -386 3 -392 0 -5 -1 -146 -3 -313
-4 -329 -3 -334 51 -358 18 -8 23 -13 13 -14 -9 0 -22 -8 -28 -17 -11 -17 -11
-17 -6 0 7 21 2 21 -29 1 -21 -14 -24 -14 -34 3 -9 15 -12 16 -20 4 -11 -17
-48 -25 -55 -12 -3 4 6 7 19 5 14 -1 25 2 25 7 0 5 -24 7 -53 5 l-53 -5 2 135
c1 74 -2 134 -7 134 -5 0 -8 -6 -7 -12 2 -8 -6 -12 -20 -11 -13 2 -21 -1 -17
-6 3 -6 -3 -15 -12 -20 -17 -11 -17 -11 0 -22 17 -10 17 -12 2 -35 -11 -18
-12 -24 -3 -24 8 0 9 -3 3 -8 -13 -9 -15 -133 -3 -125 5 3 7 12 4 22 -5 12 -2
11 9 -3 8 -11 15 -25 15 -30 0 -6 -4 -5 -9 2 -11 18 -27 -3 -29 -38 l-1 -26
182 0 c119 0 185 3 189 10 5 8 8 7 8 -1 0 -7 11 -12 25 -11 24 2 29 9 26 35
-2 19 16 24 29 8 13 -15 4 -39 -11 -30 -5 4 -9 1 -9 -5 0 -6 10 -10 22 -8 19
3 22 -2 22 -36 1 -39 2 -40 39 -41 20 -1 37 2 37 8 0 5 -8 6 -17 3 -15 -5 -15
-4 1 9 19 15 19 15 1 28 -14 11 -15 16 -5 22 9 5 11 4 6 -3 -10 -17 3 -15 20
2 17 17 19 30 2 20 -7 -5 -8 -3 -3 6 6 10 11 9 22 -6 13 -18 15 -18 24 -1 6 9
15 15 21 11 6 -4 8 2 4 17 -6 20 -5 21 4 6 12 -19 4 -41 -11 -32 -5 4 -9 2 -9
-3 0 -6 54 -9 130 -8 100 1 130 -1 130 -11 0 -7 5 -13 11 -13 5 0 7 5 3 12 -5
7 -3 8 6 3 10 -6 9 -11 -5 -22 -18 -13 -18 -13 1 -28 16 -13 16 -14 2 -9 -10
3 -18 2 -18 -3 0 -6 17 -9 38 -8 35 1 37 3 37 36 0 19 3 36 7 39 3 3 75 4 160
4 186 -2 186 -2 173 -12 -14 -10 -18 -52 -5 -52 6 0 9 4 6 9 -3 4 1 17 9 27
13 19 14 19 28 -1 9 -11 13 -23 11 -27 -3 -5 0 -8 5 -8 14 0 10 50 -4 51 -5 0
1 5 15 10 20 8 22 12 10 20 -13 9 -13 10 0 6 8 -2 14 -9 13 -14 -3 -13 90 -12
99 1 5 7 8 7 8 -2 0 -9 6 -8 24 3 23 15 25 15 35 -2 10 -17 12 -17 21 -1 6 10
18 14 32 10 11 -3 19 -1 15 4 -3 5 1 18 10 29 14 20 15 20 28 1 8 -10 12 -22
10 -26 -3 -5 2 -10 9 -13 11 -4 14 -19 11 -51 -1 -26 2 -46 7 -46 6 0 7 8 4
18 -5 14 -4 14 9 -2 15 -20 15 -20 30 0 13 16 14 16 9 2 -3 -10 -2 -18 3 -18
12 0 11 60 -1 79 -6 9 -5 12 2 7 5 -3 13 0 15 6 4 10 6 10 6 0 1 -9 7 -8 26 4
21 13 26 14 30 2 7 -17 47 -21 57 -5 6 9 8 8 8 -2 0 -11 5 -10 20 4 16 15 23
16 33 6 9 -10 9 -11 -4 -6 -10 4 -20 2 -23 -3 -4 -6 11 -9 36 -8 23 1 44 8 46
15 3 8 9 5 19 -9 12 -17 13 -24 4 -33 -9 -9 -11 -8 -6 4 4 10 2 20 -3 23 -6 3
-9 -11 -8 -34 0 -22 2 -40 2 -40 11 0 81 35 86 44 4 6 13 11 21 11 7 0 32 9
55 20 43 21 63 45 37 45 -8 0 -15 5 -15 11 0 5 -4 7 -10 4 -5 -3 -10 -2 -10 4
0 6 -7 7 -17 4 -12 -5 -14 -3 -8 7 5 9 4 11 -3 6 -7 -4 -12 -1 -12 6 0 9 -3 9
-10 -2 -9 -13 -10 -13 -10 0 0 14 -48 42 -75 44 -32 3 -35 35 -38 412 -2 209
-4 384 -4 389 0 6 1 142 3 303 4 319 3 326 -52 351 -18 8 -84 11 -195 11
l-169 -2 -31 -30 -30 -30 4 -297 c3 -163 4 -303 4 -311 0 -8 -1 -190 -1 -403
l-1 -389 28 -24 c15 -13 39 -24 53 -24 14 0 23 -3 21 -7 -3 -5 -70 -7 -149 -7
-92 1 -148 -3 -157 -10 -11 -8 -13 -8 -7 2 5 8 1 12 -11 13 -15 0 -14 2 4 9
52 21 54 39 50 442 -2 205 -4 378 -4 383 0 6 1 199 3 430 4 400 3 422 -15 451
-24 40 -46 44 -235 44 -126 0 -156 -3 -176 -17z m-884 -1543 c0 -12 -4 -16 -9
-11 -5 5 -6 14 -3 20 10 15 12 14 12 -9z m21 -12 c-3 -7 -5 -2 -5 12 0 14 2
19 5 13 2 -7 2 -19 0 -25z m-19 -38 c-7 -10 -14 -18 -15 -16 -6 6 9 36 18 36
5 0 4 -9 -3 -20z m10 -25 c-6 -14 -13 -23 -15 -21 -5 5 15 46 22 46 3 0 -1
-11 -7 -25z m-24 -31 c5 -14 4 -15 -9 -4 -17 14 -19 20 -6 20 5 0 12 -7 15
-16z m19 -31 c-7 -2 -19 -2 -25 0 -7 3 -2 5 12 5 14 0 19 -2 13 -5z m1953 -19
c-6 -16 10 -29 17 -14 3 6 4 5 3 -2 -2 -7 -9 -12 -15 -10 -6 1 -11 -4 -11 -12
0 -10 -9 -13 -30 -11 -17 2 -28 0 -25 -4 5 -9 -37 -41 -52 -41 -4 0 4 8 20 18
27 18 27 32 0 32 -8 0 -12 -4 -8 -9 6 -11 -33 -36 -43 -27 -3 3 1 6 9 6 9 1 6
7 -9 20 -21 17 -21 19 -3 17 11 0 19 -5 18 -10 -1 -5 4 -12 11 -14 8 -3 10 1
6 11 -5 12 0 16 21 16 16 0 37 11 53 28 27 28 48 32 38 6z m-1956 -8 c-7 -7
-13 -7 -20 0 -6 6 -3 10 10 10 13 0 16 -4 10 -10z m13 -21 c-3 -9 -8 -14 -10
-11 -3 3 -2 9 2 15 9 16 15 13 8 -4z m1994 -15 c-12 -18 -15 -19 -21 -5 -3 9
-2 14 3 11 5 -3 12 1 15 10 4 9 9 14 12 11 3 -3 -1 -15 -9 -27z m-375 -2 c-7
-7 -16 -7 -28 0 -14 8 -13 10 10 10 18 0 24 -4 18 -10z m113 2 c-4 -7 -65 -1
-65 6 0 3 15 4 34 2 19 -1 33 -5 31 -8z m35 -5 c0 -8 -2 -15 -4 -15 -2 0 -6 7
-10 15 -3 8 -1 15 4 15 6 0 10 -7 10 -15z m-845 -16 c-4 -5 -12 -9 -18 -8 -9
0 -8 2 1 6 6 2 9 10 6 15 -4 7 -2 8 5 4 6 -4 9 -12 6 -17z m47 -24 c3 -13 1
-22 -3 -19 -5 3 -9 14 -9 25 0 12 -4 17 -11 14 -6 -4 -8 -14 -4 -24 5 -12 4
-13 -6 -4 -9 9 -9 16 -1 26 7 8 8 18 4 23 -4 4 0 3 9 -4 9 -7 19 -24 21 -37z
m73 35 c-3 -5 -1 -10 6 -10 7 0 10 -3 6 -6 -9 -9 -28 6 -22 17 4 5 8 9 11 9 3
0 2 -4 -1 -10z m45 -5 c-7 -9 -15 -13 -19 -10 -3 3 1 10 9 15 21 14 24 12 10
-5z m880 -6 c0 -6 -4 -7 -10 -4 -5 3 -10 11 -10 16 0 6 5 7 10 4 6 -3 10 -11
10 -16z m62 14 c-6 -2 -9 -10 -6 -15 4 -7 2 -8 -4 -4 -18 11 -14 26 6 25 10 0
12 -3 4 -6z m-2022 -18 c11 -13 10 -14 -4 -9 -9 3 -16 10 -16 15 0 13 6 11 20
-6z m260 -4 c0 -3 -5 -13 -11 -21 -9 -13 -10 -12 -5 2 3 10 1 20 -4 23 -5 3
-12 -4 -15 -16 -4 -11 -9 -18 -12 -16 -10 11 18 46 32 41 8 -4 15 -9 15 -13z
m53 0 c-4 -17 17 -13 23 4 4 8 11 15 17 15 5 0 2 -9 -7 -19 -13 -14 -14 -20
-5 -23 9 -3 7 -7 -5 -11 -9 -4 -15 -3 -12 2 10 16 -21 20 -43 5 -12 -9 -21
-11 -21 -5 0 6 5 11 12 11 6 0 8 3 5 7 -10 9 14 35 27 30 6 -3 10 -10 9 -16z
m230 12 c-7 -2 -19 -2 -25 0 -7 3 -2 5 12 5 14 0 19 -2 13 -5z m177 -3 c0 -5
-2 -10 -4 -10 -3 0 -8 5 -11 10 -3 6 -1 10 4 10 6 0 11 -4 11 -10z m35 0 c-3
-5 -12 -10 -18 -10 -7 0 -6 4 3 10 19 12 23 12 15 0z m437 -7 c-6 -3 -10 -8
-7 -13 7 -11 -22 -33 -35 -25 -6 3 -8 11 -5 16 4 5 -3 9 -15 9 -12 0 -19 -4
-15 -9 9 -15 -15 -24 -30 -11 -23 19 -8 29 36 27 23 -2 48 3 58 9 9 7 18 10
21 7 3 -3 -1 -8 -8 -10z m128 12 c0 -2 -10 -9 -22 -15 -22 -11 -22 -10 -4 4
21 17 26 19 26 11z m60 -6 c0 -5 -4 -7 -10 -4 -5 3 -10 -3 -10 -14 0 -27 -15
-34 -30 -15 -10 12 -11 17 -1 27 10 9 11 8 6 -4 -4 -10 -2 -20 4 -24 6 -3 11
2 11 13 0 10 3 22 7 25 10 10 23 8 23 -4z m46 -4 c-11 -8 -25 -15 -30 -15 -6
1 0 7 14 15 32 19 40 18 16 0z m77 8 c-7 -2 -19 -2 -25 0 -7 3 -2 5 12 5 14 0
19 -2 13 -5z m233 -2 c-4 -5 0 -12 6 -15 7 -3 2 -3 -11 0 -16 4 -21 3 -17 -5
4 -6 2 -11 -3 -11 -17 0 -13 18 7 29 21 13 25 13 18 2z m41 -11 c-1 -11 -5
-20 -9 -20 -10 0 -10 4 -2 24 8 22 13 20 11 -4z m292 1 c6 -10 7 -21 4 -25 -3
-3 0 -6 9 -6 24 0 29 12 10 27 -15 13 -14 13 7 3 22 -11 22 -13 7 -28 -20 -21
-53 -4 -48 24 3 15 1 16 -12 5 -8 -7 -14 -18 -13 -23 1 -6 -5 -13 -13 -15 -12
-4 -12 -3 -2 5 8 5 14 13 14 18 2 35 22 44 37 15z m-2042 -23 c-3 -7 -5 -2 -5
12 0 14 2 19 5 13 2 -7 2 -19 0 -25z m27 2 c-6 -6 -10 -3 -10 10 0 13 4 16 10
10 7 -7 7 -13 0 -20z m722 10 c0 -12 -4 -16 -9 -11 -5 5 -6 14 -3 20 10 15 12
14 12 -9z m21 -12 c-3 -7 -5 -2 -5 12 0 14 2 19 5 13 2 -7 2 -19 0 -25z m190
0 c-3 -7 -5 -2 -5 12 0 14 2 19 5 13 2 -7 2 -19 0 -25z m27 2 c-6 -6 -10 -3
-10 10 0 13 4 16 10 10 7 -7 7 -13 0 -20z m436 10 c-24 -15 -36 -11 -14 4 10
8 21 12 24 10 2 -3 -2 -9 -10 -14z m90 16 c0 -3 -4 -8 -10 -11 -5 -3 -10 -1
-10 4 0 6 5 11 10 11 6 0 10 -2 10 -4z m356 -16 c0 -12 -4 -16 -9 -11 -5 5 -6
14 -3 20 10 15 12 14 12 -9z m21 -12 c-3 -7 -5 -2 -5 12 0 14 2 19 5 13 2 -7
2 -19 0 -25z m-1773 14 c2 -4 -4 -8 -14 -8 -10 0 -16 4 -14 8 3 4 9 8 14 8 5
0 11 -4 14 -8z m34 -6 c-7 -8 -15 -12 -17 -11 -5 6 10 25 20 25 5 0 4 -6 -3
-14z m362 0 c-7 -7 -13 -7 -20 0 -6 6 -3 10 10 10 13 0 16 -4 10 -10z m673 -1
c-3 -9 -8 -14 -10 -11 -3 3 -2 9 2 15 9 16 15 13 8 -4z m287 1 c-7 -7 -13 -7
-20 0 -6 6 -3 10 10 10 13 0 16 -4 10 -10z m505 4 c3 -6 -1 -7 -9 -4 -18 7
-21 14 -7 14 6 0 13 -4 16 -10z m-2016 -4 c-2 -2 -15 -9 -29 -15 -24 -11 -24
-11 -6 3 16 13 49 24 35 12z m111 -5 c0 -5 -10 -11 -22 -14 -22 -6 -22 -6 -4
8 23 17 26 18 26 6z m660 -15 c0 -2 -9 -2 -20 1 -11 3 -20 9 -20 15 0 5 9 4
20 -2 11 -6 20 -12 20 -14z m160 -2 c0 -2 -9 0 -20 6 -11 6 -20 13 -20 16 0 2
9 0 20 -6 11 -6 20 -13 20 -16z m140 17 c0 -5 -10 -11 -22 -14 -22 -6 -22 -6
-4 8 23 17 26 18 26 6z m340 -13 c0 -6 -6 -5 -15 2 -8 7 -15 14 -15 16 0 2 7
1 15 -2 8 -4 15 -11 15 -16z m584 9 c17 -12 17 -14 -1 -28 -17 -13 -17 -13 -3
5 14 18 13 19 -3 13 -10 -4 -16 -3 -12 2 3 5 -1 12 -7 14 -7 3 -8 6 -2 6 5 1
18 -5 28 -12z m-1784 -7 c0 -5 -2 -10 -4 -10 -3 0 -8 5 -11 10 -3 6 -1 10 4
10 6 0 11 -4 11 -10z m1600 0 c0 -5 -5 -10 -11 -10 -5 0 -7 5 -4 10 3 6 8 10
11 10 2 0 4 -4 4 -10z m-1657 -7 c-7 -2 -19 -2 -25 0 -7 3 -2 5 12 5 14 0 19
-2 13 -5z m307 -13 c0 -5 -5 -10 -11 -10 -5 0 -7 5 -4 10 3 6 8 10 11 10 2 0
4 -4 4 -10z m415 0 c3 -5 1 -10 -4 -10 -6 0 -11 5 -11 10 0 6 2 10 4 10 3 0 8
-4 11 -10z m1195 0 c0 -5 -2 -10 -4 -10 -3 0 -8 5 -11 10 -3 6 -1 10 4 10 6 0
11 -4 11 -10z m-48 -7 c-6 -2 -9 -10 -6 -15 4 -7 2 -8 -4 -4 -7 4 -12 2 -12
-5 0 -7 -3 -9 -6 -6 -9 8 15 37 30 36 7 0 6 -2 -2 -6z m-349 -10 c-7 -2 -19
-2 -25 0 -7 3 -2 5 12 5 14 0 19 -2 13 -5z m-1236 -35 c-3 -7 -5 -2 -5 12 0
14 2 19 5 13 2 -7 2 -19 0 -25z m27 2 c-6 -6 -10 -3 -10 10 0 13 4 16 10 10 7
-7 7 -13 0 -20z m402 10 c0 -12 -4 -16 -9 -11 -5 5 -6 14 -3 20 10 15 12 14
12 -9z m21 -12 c-3 -7 -5 -2 -5 12 0 14 2 19 5 13 2 -7 2 -19 0 -25z m783 8
c-7 -7 -13 -7 -20 0 -6 6 -3 10 10 10 13 0 16 -4 10 -10z"/>
<path d="M515 210 c-3 -5 -2 -10 4 -10 5 0 13 5 16 10 3 6 2 10 -4 10 -5 0
-13 -4 -16 -10z"/>
<path d="M1315 190 c3 -5 11 -10 16 -10 6 0 7 5 4 10 -3 6 -11 10 -16 10 -6 0
-7 -4 -4 -10z"/>
<path d="M1385 190 c-3 -5 -2 -10 4 -10 5 0 13 5 16 10 3 6 2 10 -4 10 -5 0
-13 -4 -16 -10z"/>
<path d="M226 1515 c-3 -8 -1 -15 4 -15 6 0 10 7 10 15 0 8 -2 15 -4 15 -2 0
-6 -7 -10 -15z"/>
<path d="M226 1315 c-3 -8 -1 -15 4 -15 6 0 10 7 10 15 0 8 -2 15 -4 15 -2 0
-6 -7 -10 -15z"/>
<path d="M160 405 c0 -8 2 -15 4 -15 2 0 6 7 10 15 3 8 1 15 -4 15 -6 0 -10
-7 -10 -15z"/>
<path d="M380 230 c0 -5 7 -7 15 -4 8 4 15 8 15 10 0 2 -7 4 -15 4 -8 0 -15
-4 -15 -10z"/>
<path d="M1793 208 c-4 -7 -8 -17 -8 -23 0 -5 -10 -10 -23 -9 -12 0 -22 -3
-22 -7 0 -4 22 -7 49 -7 l49 1 -21 19 c-12 11 -16 17 -10 13 9 -4 11 -1 7 9
-7 19 -10 20 -21 4z"/>
<path d="M600 201 c0 -5 5 -13 10 -16 6 -3 10 -2 10 4 0 5 -4 13 -10 16 -5 3
-10 2 -10 -4z"/>
<path d="M905 190 c-3 -5 -2 -10 4 -10 5 0 13 5 16 10 3 6 2 10 -4 10 -5 0
-13 -4 -16 -10z"/>
<path d="M1680 170 c-13 -8 -12 -10 3 -10 9 0 17 5 17 10 0 12 -1 12 -20 0z"/>
<path d="M1960 170 c-13 -8 -12 -10 3 -10 9 0 17 5 17 10 0 12 -1 12 -20 0z"/>
<path d="M1466 125 c-4 -11 -2 -14 7 -10 6 4 2 -2 -10 -13 l-22 -19 41 0 c30
0 36 2 24 9 -9 5 -14 13 -11 17 2 5 -1 14 -9 20 -10 9 -15 8 -20 -4z"/>
</g>
</svg>
